<?xml version="1.0" encoding="UTF-8"?>
<svg id="Layer_1" data-name="Layer 1" xmlns="http://www.w3.org/2000/svg" viewBox="0 0 819.45 819.45">
  <defs>
    <style>
      .cls-1 {
        fill: #f3f4f5;
      }
    </style>
  </defs>
  <path class="cls-1" d="M730.57,472.77l-45.37-51.54c-1.91-2.17-4.7-3.41-7.64-3.41h-8.48c-.53,0-.88-.34-.88-.56v-11.75c0-2.3-.85-4.54-2.4-6.32l-60.48-68.71c-3.25-3.69-8.29-4.97-12.85-3.25-4.69,1.77-7.73,6.22-7.73,11.34v142.16c0,6.67,5.29,12.09,11.79,12.09l125.24.13h.02c4.65,0,8.75-2.68,10.7-6.99,2.03-4.48,1.29-9.53-1.94-13.2Z"/>
  <path class="cls-1" d="M222.9,326.61l-125.24-.13h-.01c-4.65,0-8.75,2.68-10.7,7-2.03,4.47-1.28,9.53,1.94,13.19l45.37,51.54c1.91,2.16,4.7,3.41,7.64,3.41h8.48c.53,0,.88.33.88.56v11.76c0,2.31.85,4.55,2.4,6.31l60.48,68.71c2.29,2.61,5.47,4.01,8.74,4.01,1.37,0,2.76-.25,4.1-.75,4.7-1.77,7.73-6.23,7.73-11.35v-142.16c0-6.66-5.29-12.08-11.79-12.09Z"/>
  <path class="cls-1" d="M542.33,288.97c-7.92-3.19-16.81-1.37-22.6,4.66l-103.89,107.91c-1.21,1.26-2.99,1.98-4.89,1.98h-.01c-1.9,0-3.68-.72-4.89-1.97l-106.36-109.91c-5.81-6-14.68-7.8-22.59-4.61-7.48,3.03-12.12,9.71-12.12,17.44v210.51c0,10.46,8.97,18.97,19.99,18.97h103.47c4.3,0,8.38-1.57,11.47-4.43l8.66-7.99c.25-.23.89-.24,1.14,0l7.84,7.23c3.63,3.35,8.42,5.19,13.49,5.19h103.47c11.02,0,19.99-8.51,19.99-18.97v-208.57c0-7.75-4.66-14.43-12.15-17.45Z"/>
</svg>